# xmcd CD database file
#
# Track frame offsets:
#	150
#	20273
#	46103
#	71153
#	98760
#	116630
#	138839
#	166621
#	187602
#	213023
#	247027
#
# Disc length: 3695 seconds
#
# Revision: 0
# Processed by: cddbd v1.5.1PL2 Copyright (c) Steve Scherf et al.
# Submitted via: CDex 1.51
#
DISCID=830e6d0b
DTITLE=Thom Mason - De Ja New
DYEAR=1999
DGENRE=Jazz
TTITLE0=Bill Bailey
TTITLE1=Louisiana
TTITLE2=Everyday I Have The Blues
TTITLE3=Body And Soul
TTITLE4=Seven Come Eleven
TTITLE5=Teach Me Tonight
TTITLE6=It Could Happen To You
TTITLE7=Sweet Georgia Brown
TTITLE8=Who Can I Turn To
TTITLE9=Willow Weep For Me
TTITLE10=It Might As Well Be Spring
EXTD=YEAR: 1999
EXTT0=
EXTT1=
EXTT2=
EXTT3=
EXTT4=
EXTT5=
EXTT6=
EXTT7=
EXTT8=
EXTT9=
EXTT10=
PLAYORDER=
